<?xml version="1.0" encoding="UTF-8" standalone="no"?>
<!-- Created with Inkscape (http://www.inkscape.org/) -->

<svg
   xmlns:dc="http://purl.org/dc/elements/1.1/"
   xmlns:cc="http://creativecommons.org/ns#"
   xmlns:rdf="http://www.w3.org/1999/02/22-rdf-syntax-ns#"
   xmlns:svg="http://www.w3.org/2000/svg"
   xmlns="http://www.w3.org/2000/svg"
   xmlns:sodipodi="http://sodipodi.sourceforge.net/DTD/sodipodi-0.dtd"
   xmlns:inkscape="http://www.inkscape.org/namespaces/inkscape"
   width="200.02501mm"
   height="141.81668mm"
   viewBox="0 0 200.02501 141.81668"
   version="1.1"
   id="svg8"
   inkscape:version="0.92.5 (2060ec1f9f, 2020-04-08)"
   sodipodi:docname="figlogoW.svg">
  <defs
     id="defs2" />
  <sodipodi:namedview
     id="base"
     pagecolor="#ffffff"
     bordercolor="#666666"
     borderopacity="1.0"
     inkscape:pageopacity="0.0"
     inkscape:pageshadow="2"
     inkscape:zoom="0.35"
     inkscape:cx="-103.42856"
     inkscape:cy="310.85718"
     inkscape:document-units="mm"
     inkscape:current-layer="layer1-4"
     showgrid="false"
     inkscape:window-width="2560"
     inkscape:window-height="1369"
     inkscape:window-x="1072"
     inkscape:window-y="295"
     inkscape:window-maximized="1" />
  <metadata
     id="metadata5">
    <rdf:RDF>
      <cc:Work
         rdf:about="">
        <dc:format>image/svg+xml</dc:format>
        <dc:type
           rdf:resource="http://purl.org/dc/dcmitype/StillImage" />
        <dc:title></dc:title>
      </cc:Work>
    </rdf:RDF>
  </metadata>
  <g
     inkscape:label="Layer 1"
     inkscape:groupmode="layer"
     id="layer1"
     transform="translate(-4.3089267,-89.264278)">
    <g
       transform="translate(-1.7366693,11.150921)"
       id="layer1-4"
       inkscape:label="Layer 1">
      <path
         inkscape:connector-curvature="0"
         id="path4531"
         d="M 6.045596,149.02169 V 78.113357 H 106.0581 206.0706 v 70.908333 70.90835 H 106.0581 6.045596 Z m 194.027704,0 V 84.110577 H 106.0581 12.042796 v 64.911113 64.91112 H 106.0581 200.0733 Z M 44.674696,194.9895 c -6.5929,-0.87443 -10.732,-4.77022 -10.752,-10.11993 0,-1.14166 0.179,-2.69887 0.4072,-3.46047 0.5683,-1.89701 2.8349,-4.36687 5.0096,-5.45904 0.9941,-0.49923 1.8514,-0.94573 1.905,-0.99223 0.054,-0.0465 -0.4592,-0.91197 -1.1397,-1.92326 -2.9871,-4.43874 -2.3377,-8.84166 1.6031,-10.86961 3.2127,-1.65328 9.2023,-1.75365 13.039,-0.2185 l 1.4783,0.59147 -0.193,1.62036 c -0.1061,0.89119 -0.3663,2.07486 -0.5782,2.63038 -0.3324,0.87159 -0.5173,0.97813 -1.3489,0.77728 -2.1527,-0.51991 -6.4314,-0.63836 -7.473,-0.20689 -2.5159,1.04213 -1.8605,2.36475 4.8903,9.86762 3.9283,4.36598 5.5431,5.93521 5.8208,5.65643 0.2182,-0.21903 0.3843,-1.71185 0.3843,-3.45347 v -3.06767 l 2.7888,-0.10402 c 1.5338,-0.0572 2.9399,0.0472 3.1248,0.23204 0.5563,0.55634 0.7248,4.68887 0.2787,6.83761 -0.2298,1.10668 -0.8105,2.75082 -1.2905,3.65364 -0.9884,1.85887 -1.1526,1.44095 1.8861,4.79964 2.2996,2.54175 2.0072,3.10352 -1.6133,3.09995 -2.6795,-0.002 -4.4575,-0.54052 -5.1178,-1.54832 l -0.5449,-0.8316 -1.6962,0.83874 c -2.9624,1.46483 -7.2995,2.1232 -10.8685,1.64985 z m 7.6073,-7.04366 c 0.3071,-0.30717 -0.477,-1.40475 -3.2025,-4.48272 -3.5601,-4.0204 -3.6219,-4.06941 -4.537,-3.59619 -2.0926,1.0821 -2.9729,2.99629 -2.4073,5.23427 0.3503,1.38633 1.5972,2.54086 3.3479,3.10012 1.3308,0.42512 6.3052,0.2382 6.7989,-0.25548 z m 52.956304,6.91227 c -5.505204,-1.08339 -9.261404,-4.86861 -10.827704,-10.91142 -0.7443,-2.87145 -0.5701,-10.4992 0.302,-13.22917 2.0642,-6.46131 7.066104,-9.85037 14.520504,-9.83849 4.8243,0.008 10.0578,1.782 10.0507,3.40747 -0.01,1.11008 -1.6252,4.46099 -2.2783,4.71161 -0.2997,0.115 -1.5606,-0.0659 -2.8021,-0.40191 -2.8389,-0.76847 -6.2117,-0.6026 -8.1525,0.40094 -1.9903,1.02911 -3.2395,3.21489 -3.7051,6.48288 -0.5756,4.04053 0.029,7.60985 1.6597,9.79284 1.7992,2.40907 5.6829,3.37538 9.4609,2.35399 3.7714,-1.01961 4.0375,-0.95478 5.1685,1.25873 1.4226,2.78448 1.2523,3.49737 -1.1116,4.65148 -3.1812,1.55318 -8.3054,2.1042 -12.285,1.32105 z m 54.0341,0.0101 c -3.9803,-0.78748 -7.7903,-3.73694 -9.3334,-7.2253 -2.3004,-5.20042 -2.2807,-14.37915 0.041,-19.31924 2.5502,-5.42536 8.7276,-8.29922 15.7421,-7.32359 6.3379,0.88151 10.2077,4.47008 11.8105,10.95218 0.7133,2.88449 0.6126,10.23554 -0.1762,12.86577 -1.6843,5.61634 -4.7271,8.68503 -9.7967,9.88015 -2.4018,0.56623 -5.9202,0.63841 -8.2877,0.17003 z m 7.282,-7.68398 c 2.4127,-1.78596 3.3534,-4.95431 3.1074,-10.4655 -0.1847,-4.13763 -1.1319,-6.52608 -3.1265,-7.88337 -1.0558,-0.71853 -1.5437,-0.80754 -3.8168,-0.69625 -2.5622,0.12544 -2.6287,0.15293 -3.9355,1.62543 -1.6848,1.89854 -2.239,4.08283 -2.2109,8.71411 0.023,3.801 0.8635,6.88059 2.2103,8.09944 1.8205,1.64758 5.932,1.96823 7.772,0.60614 z m -6.6977,-50.6376 c -4.3052,-0.93523 -7.7672,-3.5507 -9.389,-7.09306 -2.5946,-5.66745 -2.5336,-13.83334 0.1438,-19.22512 2.1858,-4.40204 5.6164,-6.58567 11.6424,-7.41075 4.6306,-0.63402 10.6565,0.42671 12.9888,2.28642 l 1.0122,0.80708 -0.6903,2.03068 c -0.3796,1.11687 -0.9395,2.33853 -1.2442,2.7148 -0.547,0.67556 -0.5863,0.6743 -3.1395,-0.10123 -2.1141,-0.64212 -3.1432,-0.75354 -5.6436,-0.61098 -6.1101,0.34838 -8.133,2.49431 -8.4274,8.93965 -0.204,4.46417 0.4374,6.99081 2.2294,8.78277 1.6038,1.60385 4.4735,2.47116 7.2249,2.18359 3.2731,-0.3421 3.1702,-0.21372 3.1702,-3.95801 v -3.29819 l -2.5576,-0.10365 -2.5576,-0.10365 -0.1043,-2.59027 c -0.065,-1.606 0.052,-2.77895 0.3077,-3.08681 0.3207,-0.38632 1.5822,-0.49653 5.6838,-0.49653 2.9592,0 5.571,0.16019 5.954,0.36519 0.6441,0.34472 0.6824,0.8177 0.6824,8.43781 0,4.43994 -0.099,8.3311 -0.2204,8.64701 -0.3391,0.88357 -3.2339,2.18895 -6.2238,2.80653 -3.1314,0.64681 -8.0572,0.68167 -10.8419,0.0767 z m -119.591704,-0.1293 c -0.291,-0.11079 -0.6458,-0.37607 -0.7883,-0.58951 -0.4177,-0.62535 -0.3267,-31.19663 0.095,-31.98488 0.348,-0.65035 0.8412,-0.68236 10.5127,-0.68236 7.4222,0 10.2613,0.1137 10.571,0.42333 0.2511,0.25118 0.4233,1.46039 0.4233,2.97342 0,3.73959 0.1641,3.6588 -7.4335,3.6588 h -6.3249 v 3.35139 3.35139 h 6.1305 c 4.835,0 6.2173,0.10475 6.5418,0.49573 0.2582,0.31109 0.3728,1.52644 0.3078,3.26319 l -0.1037,2.76747 -6.35,0.17639 -6.35,0.17639 -0.093,5.99722 c -0.08,5.13167 -0.1785,6.06087 -0.6848,6.4382 -0.597,0.44497 -5.408,0.58201 -6.454,0.18383 z m 62.675404,-0.26512 c -0.529,-0.529 -0.5865,-2.10737 -0.5865,-16.10669 0,-10.02384 0.1293,-15.76187 0.3652,-16.20258 0.3234,-0.6043 0.7659,-0.68236 3.8681,-0.68236 3.1022,0 3.5448,0.0781 3.8682,0.68236 0.4739,0.88565 0.4931,31.377 0.02,32.12597 -0.5226,0.82746 -6.7399,0.9787 -7.5353,0.1833 z"
         style="fill:#ffffff;stroke-width:0.35277778;fill-opacity:1" />
    </g>
  </g>
</svg>
